<svg xmlns="http://www.w3.org/2000/svg" width="32" height="32" viewBox="0 0 32 32">
  <g transform="scale(0.85)">
    <path style="fill-rule:evenodd;clip-rule:evenodd;fill:#F0B90B;" d="M16,0c8.8,0,16,7.2,16,16s-7.2,16-16,16S0,24.8,0,16S7.2,0,16,0L16,0z"/>
    <path style="fill:#FFFFFF;" d="M8.79,16l0.01,4.23l3.6,2.12v2.48l-5.7-3.35v-6.73L8.79,16L8.79,16z M8.79,11.47v2.47L6.57,13.35V11.2 l2.22-1.31l2.23,1.31L8.79,11.47L8.79,11.47z M12.9,11.2l2.23-1.31l2.23,1.31L16,12.47L12.9,11.2L12.9,11.2z"/>
    <path style="fill:#FFFFFF;" d="M10.05,19.35v-2.48l2.23,1.31v2.47L10.05,19.35L10.05,19.35z M12.9,23.22l2.23,1.31l2.23-1.31v2.47 l-2.23,1.31l-2.23-1.31V23.22L12.9,23.22z M20.6,11.2l2.23-1.31l2.23,1.31v2.47l-2.23,1.31V12.47L20.6,11.2L20.6,11.2L20.6,11.2z M22.83,20.73l0.01-4.23l2.23-1.31v6.73l-5.7,3.35v-2.48L22.83,20.73L22.83,20.73z"/>
    <polygon style="fill:#FFFFFF;" points="21.14,19.35 19.91,20.05 19.91,17.57 21.14,16.87 21.14,19.35 	"/>
    <path style="fill:#FFFFFF;" d="M21.14,12.33l0.01,2.48l-3.61,2.12v4.25l-2.23,1.22l-2.23-1.22v-4.25l-3.61-2.12v-2.48l2.23-1.31 l3.6,2.12l3.61-2.12l2.23,1.31H21.14L21.14,12.33z M10.05,8.22l3.6-2.12l3.61,2.12l-2.23,1.31l-3.61-2.12L10.05,9.53L10.05,8.22z"/>
  </g>
</svg>
